<?xml version="1.0" encoding="utf-8"?><svg xmlns="http://www.w3.org/2000/svg" xmlns:xlink="http://www.w3.org/1999/xlink"><symbol fill="none" viewBox="0 0 8 16" id="address" xmlns="http://www.w3.org/2000/svg"><path d="M8 4c0-2.206-1.794-4-4-4S0 1.794 0 4a4.006 4.006 0 0 0 3.333 3.944v7.39a.667.667 0 0 0 1.334 0v-7.39A4.006 4.006 0 0 0 8 4ZM4 6.667A2.67 2.67 0 0 1 1.333 4 2.67 2.67 0 0 1 4 1.333 2.67 2.67 0 0 1 6.667 4 2.67 2.67 0 0 1 4 6.667Z" fill="#FB5B11"/></symbol><symbol fill="none" viewBox="0 0 26 8" id="arrow-left" xmlns="http://www.w3.org/2000/svg"><path d="M1 4.5a.5.5 0 0 1 0-1v1Zm24.354-.854a.5.5 0 0 1 0 .708l-3.182 3.182a.5.5 0 1 1-.707-.708L24.293 4l-2.828-2.828a.5.5 0 1 1 .707-.708l3.182 3.182ZM1 3.5h24v1H1v-1Z" fill="currentColor"/></symbol><symbol fill="none" viewBox="0 0 17 18" id="arrow-up" xmlns="http://www.w3.org/2000/svg"><path d="M.247 16.341a1 1 0 0 0 1.506 1.317L.247 16.341ZM15.997.934a1 1 0 0 0-1.063-.93L5.954.6a1 1 0 1 0 .132 1.995l7.983-.532.532 7.983a1 1 0 0 0 1.995-.133l-.598-8.98ZM1.754 17.66l14-16L14.247.34l-14 16 1.506 1.317Z" fill="#fff"/></symbol><symbol fill="none" viewBox="0 0 12 12" id="hours" xmlns="http://www.w3.org/2000/svg"><path d="M6 12c-3.308 0-6-2.691-6-6 0-3.308 2.692-6 6-6 3.309 0 6 2.692 6 6 0 3.309-2.691 6-6 6ZM6 1C3.243 1 1 3.243 1 6s2.243 5 5 5 5-2.243 5-5-2.243-5-5-5Zm2.5 5a.5.5 0 0 0-.5-.5H6.5V3a.5.5 0 1 0-1 0v3a.5.5 0 0 0 .5.5h2a.5.5 0 0 0 .5-.5Z" fill="#FB5B11"/></symbol><symbol fill="none" viewBox="0 0 12 12" id="mail" xmlns="http://www.w3.org/2000/svg"><path d="M9.5.5h-7A2.503 2.503 0 0 0 0 3v6a2.503 2.503 0 0 0 2.5 2.5h7A2.503 2.503 0 0 0 12 9V3A2.503 2.503 0 0 0 9.5.5Zm-7 1h7a1.5 1.5 0 0 1 1.39.943l-3.829 3.83a1.503 1.503 0 0 1-2.122 0L1.11 2.443A1.5 1.5 0 0 1 2.5 1.5Zm7 9h-7A1.5 1.5 0 0 1 1 9V3.75l3.232 3.23a2.503 2.503 0 0 0 3.536 0L11 3.75V9a1.5 1.5 0 0 1-1.5 1.5Z" fill="#FB5B11"/></symbol><symbol viewBox="0 0 24 24" fill="none" id="narrow-up" xmlns="http://www.w3.org/2000/svg"><path d="M12 4v16m0-16L8 8m4-4 4 4" stroke="#000" stroke-width="2" stroke-linecap="round" stroke-linejoin="round"/></symbol><symbol fill="none" viewBox="0 0 20 20" id="phone" xmlns="http://www.w3.org/2000/svg"><path d="M10.8.835A.834.834 0 0 1 11.635 0a8.343 8.343 0 0 1 8.333 8.334.834.834 0 0 1-1.666 0 6.674 6.674 0 0 0-6.667-6.667.833.833 0 0 1-.833-.833ZM11.635 5a3.333 3.333 0 0 1 3.333 3.334.833.833 0 1 0 1.667 0 5.005 5.005 0 0 0-5-5 .833.833 0 0 0 0 1.666Zm7.578 8.95a2.584 2.584 0 0 1 0 3.648l-.759.874c-6.825 6.534-23.433-10.07-17-16.917l.959-.833a2.568 2.568 0 0 1 3.605.033c.026.026 1.57 2.032 1.57 2.032a2.583 2.583 0 0 1-.005 3.568L6.617 7.57a10.65 10.65 0 0 0 5.775 5.787l1.221-.97a2.584 2.584 0 0 1 3.568-.006s2.005 1.544 2.03 1.57Zm-1.147 1.211s-1.994-1.534-2.02-1.56a.916.916 0 0 0-1.29 0c-.023.024-1.704 1.363-1.704 1.363a.834.834 0 0 1-.816.126 12.508 12.508 0 0 1-7.35-7.34.833.833 0 0 1 .12-.833s1.34-1.682 1.362-1.703a.917.917 0 0 0 0-1.291c-.026-.025-1.56-2.021-1.56-2.021a.917.917 0 0 0-1.259.032l-.958.834c-4.702 5.653 9.69 19.247 14.645 14.566l.76-.875a.934.934 0 0 0 .07-1.298Z" fill="#fff"/></symbol><symbol fill="none" viewBox="0 0 21 31" id="play" xmlns="http://www.w3.org/2000/svg"><path d="M21 15.5 0 31V0l21 15.5Z" fill="#fff"/></symbol><symbol fill="none" viewBox="0 0 50 16" id="projects-arrow-back" xmlns="http://www.w3.org/2000/svg"><path d="M49 9a1 1 0 1 0 0-2v2ZM.293 7.293a1 1 0 0 0 0 1.414l6.364 6.364a1 1 0 0 0 1.414-1.414L2.414 8l5.657-5.657A1 1 0 0 0 6.657.93L.293 7.293ZM49 7H1v2h48V7Z" fill="#0E0E0E"/></symbol><symbol fill="none" viewBox="0 0 50 16" id="projects-arrow-forward" xmlns="http://www.w3.org/2000/svg"><path d="M1 7a1 1 0 0 0 0 2V7Zm48.707 1.707a1 1 0 0 0 0-1.414L43.343.929a1 1 0 1 0-1.414 1.414L47.586 8l-5.657 5.657a1 1 0 0 0 1.414 1.414l6.364-6.364ZM1 9h48V7H1v2Z" fill="#0E0E0E"/></symbol></svg>